<svg xmlns="http://www.w3.org/2000/svg" viewBox="0 0 112.76 112.76"><defs><style>.cls-1{fill:#ef4136;}.cls-2{fill:#58595b;}</style></defs><title>bug laptop</title><g id="Layer_2" data-name="Layer 2"><g id="Layer_1-2" data-name="Layer 1"><path class="cls-1" d="M112.76,33.83V22.55H101.48a27.51,27.51,0,0,0-4.88-6.17l4.24-8.13A5.64,5.64,0,0,0,90.84,3l-4.38,8.38a13,13,0,0,0-3.8,0L78.29,3a5.64,5.64,0,0,0-10,5.22l4.24,8.13a27.51,27.51,0,0,0-4.88,6.17H56.38V33.83h6.9a48.79,48.79,0,0,0-.94,5.64h-6V50.74h6a48.74,48.74,0,0,0,.94,5.64h-6.9V67.65H67.66c4.1,6.94,10.1,11.28,16.91,11.28s12.81-4.34,16.91-11.28h11.28V56.38h-6.9a48.73,48.73,0,0,0,.94-5.64h6V39.47h-6a48.78,48.78,0,0,0-.94-5.64ZM84.57,67.65c-5.32,0-11.28-9.64-11.28-22.55s6-22.55,11.28-22.55S95.84,32.2,95.84,45.1,89.89,67.65,84.57,67.65Z"/><polygon class="cls-2" points="107.12 84.57 95.84 84.57 95.84 95.84 16.91 95.84 16.91 39.47 45.1 39.47 45.1 28.19 5.64 28.19 5.64 101.48 0 101.48 0 112.76 112.76 112.76 112.76 101.48 107.12 101.48 107.12 84.57"/></g></g></svg>