<svg xmlns="http://www.w3.org/2000/svg" viewBox="0 0 112.76 112.76"><defs><style>.cls-1{fill:#ef4136;}.cls-2{fill:#58595b;}</style></defs><title>dollar sign</title><g id="Layer_2" data-name="Layer 2"><g id="Layer_1-2" data-name="Layer 1"><path class="cls-1" d="M22.55,22.55A11.29,11.29,0,0,1,33.83,33.83H45.1A22.53,22.53,0,0,0,28.19,12.07V0H16.91V12.07a22.51,22.51,0,0,0,5.64,44.31A11.28,11.28,0,1,1,11.28,67.66H0A22.53,22.53,0,0,0,16.91,89.42V101.5H28.19V89.42a22.51,22.51,0,0,0-5.64-44.31,11.28,11.28,0,0,1,0-22.56Z"/><path class="cls-2" d="M108.59,78.49a5.64,5.64,0,0,0,.29-10.8L58.14,51A5.64,5.64,0,0,0,51,58.15L67.94,108.9a5.63,5.63,0,0,0,5.35,3.86h.19a5.64,5.64,0,0,0,5.27-4.21l4.52-17.31,21.44,21.44,8-8L91.17,83.2ZM78.82,74.85a5.63,5.63,0,0,0-4,4l-2.2,8.45L65.27,65.23l22.17,7.29Z"/></g></g></svg>