<svg xmlns="http://www.w3.org/2000/svg" viewBox="0 0 115.72 104.14"><defs><style>.cls-1{fill:#58595b;}.cls-2{fill:#ef4136;}</style></defs><title>laptop cog</title><g id="Layer_2" data-name="Layer 2"><g id="Layer_1-2" data-name="Layer 1"><path class="cls-1" d="M23.14,11.55H92.57V69.41H23.14Zm81,62.5V0H11.57V74.06L0,104.14H115.72ZM16.84,92.57,21.29,81H94.42l4.46,11.57Z"/><path class="cls-1" d="M73.47,33l4.84-4.84L70.12,20l-4.84,4.84a17.26,17.26,0,0,0-1.65-.67V17.34H52.07v6.85a17.24,17.24,0,0,0-1.65.67L45.57,20l-8.18,8.18L42.23,33a17,17,0,0,0-.67,1.65H34.71V46.27h6.85a17.18,17.18,0,0,0,.67,1.65l-4.84,4.84,8.18,8.18,4.84-4.84a17.17,17.17,0,0,0,1.65.67v6.85H63.64V56.78a17.16,17.16,0,0,0,1.65-.67l4.84,4.84,8.18-8.18-4.84-4.84a16.94,16.94,0,0,0,.67-1.65H81V34.7H74.14A17.14,17.14,0,0,0,73.47,33Zm-9.83,7.44a5.79,5.79,0,1,1-5.79-5.79A5.79,5.79,0,0,1,63.64,40.48Z"/><path class="cls-2" d="M73.47,33l4.84-4.84L70.12,20l-4.84,4.84a17.26,17.26,0,0,0-1.65-.67V17.34H52.07v6.85a17.24,17.24,0,0,0-1.65.67L45.57,20l-8.18,8.18L42.23,33a17,17,0,0,0-.67,1.65H34.71V46.27h6.85a17.18,17.18,0,0,0,.67,1.65l-4.84,4.84,8.18,8.18,4.84-4.84a17.17,17.17,0,0,0,1.65.67v6.85H63.64V56.78a17.16,17.16,0,0,0,1.65-.67l4.84,4.84,8.18-8.18-4.84-4.84a16.94,16.94,0,0,0,.67-1.65H81V34.7H74.14A17.14,17.14,0,0,0,73.47,33Zm-9.83,7.44a5.79,5.79,0,1,1-5.79-5.79A5.79,5.79,0,0,1,63.64,40.48Z"/></g></g></svg>