<svg xmlns="http://www.w3.org/2000/svg" viewBox="0 0 112.76 90.21"><defs><style>.cls-1{fill:#58595b;}.cls-2{fill:#ef4136;}</style></defs><title>link</title><g id="Layer_2" data-name="Layer 2"><g id="Layer_1-2" data-name="Layer 1"><path class="cls-1" d="M95.84,45.1H56.38A16.93,16.93,0,0,0,39.46,62v5.64H50.74V62a5.64,5.64,0,0,1,5.64-5.64H95.84A5.64,5.64,0,0,1,101.48,62V73.29a5.64,5.64,0,0,1-5.64,5.64H84.57V90.21H95.84a16.93,16.93,0,0,0,16.91-16.91V62A16.93,16.93,0,0,0,95.84,45.1Z"/><path class="cls-1" d="M62,73.29a5.64,5.64,0,0,1-5.64,5.64H16.91a5.64,5.64,0,0,1-5.64-5.64V62a5.64,5.64,0,0,1,5.64-5.64H28.19V45.1H16.91A16.93,16.93,0,0,0,0,62V73.29A16.93,16.93,0,0,0,16.91,90.21H56.38A16.93,16.93,0,0,0,73.29,73.29V67.65H62Z"/><polygon class="cls-2" points="50.74 33.83 62.02 33.83 62.02 22.55 73.29 22.55 73.29 11.28 62.02 11.28 62.02 0 50.74 0 50.74 11.28 39.47 11.28 39.47 22.55 50.74 22.55 50.74 33.83"/></g></g></svg>