<svg xmlns="http://www.w3.org/2000/svg" viewBox="0 0 112.76 112.76"><defs><style>.cls-1{fill:#58595b;}.cls-2{fill:#ef4136;}</style></defs><title>mag glass</title><g id="Layer_2" data-name="Layer 2"><g id="Layer_1-2" data-name="Layer 1"><path class="cls-1" d="M45.1,28.19A16.91,16.91,0,1,0,62,45.1,16.91,16.91,0,0,0,45.1,28.19Zm0,22.55a5.64,5.64,0,1,1,5.64-5.64A5.64,5.64,0,0,1,45.1,50.74Z"/><path class="cls-2" d="M108.64,88.71,90.56,70.62l-6,6-7.89-7.89a39.19,39.19,0,0,0,7.44-18h6.09V39.47H84.12a39.21,39.21,0,0,0-7.44-18L81,17.2l-8-8-4.3,4.3a39.2,39.2,0,0,0-18-7.44V0H39.47V6.09a39.2,39.2,0,0,0-18,7.44l-4.3-4.3-8,8,4.3,4.3a39.18,39.18,0,0,0-7.44,18H0V50.74H6.09a39.2,39.2,0,0,0,7.44,18L9.22,73l8,8,4.31-4.31a39.19,39.19,0,0,0,18,7.44v6.09H50.74V84.12a39.2,39.2,0,0,0,18-7.44l7.89,7.89-6,6L88.7,108.63a14.09,14.09,0,0,0,19.94-19.93ZM45.11,73.29A28.19,28.19,0,1,1,73.29,45.1,28.22,28.22,0,0,1,45.11,73.29Zm55.55,27.37a2.82,2.82,0,0,1-4,0L86.57,90.55l4-4,10.11,10.11A2.82,2.82,0,0,1,100.66,100.66Z"/></g></g></svg>