<svg xmlns="http://www.w3.org/2000/svg" viewBox="0 0 112.76 112.76"><defs><style>.cls-1{fill:#58595b;}</style></defs><title>phone</title><g id="Layer_2" data-name="Layer 2"><g id="Layer_1-2" data-name="Layer 1"><path class="cls-1" d="M56.38,101.48H11.28V11.28h45.1V22.55H67.65V11.28A11.29,11.29,0,0,0,56.38,0H11.28A11.29,11.29,0,0,0,0,11.28v90.21a11.29,11.29,0,0,0,11.28,11.28h45.1a11.29,11.29,0,0,0,11.28-11.28V78.93H56.38Z"/><rect class="cls-1" x="28.19" y="84.57" width="11.28" height="11.28"/><path class="cls-1" d="M112.76,56.38V45.1h-6.62a22.11,22.11,0,0,0-2.34-5.62l4.69-4.69-8-8-4.69,4.69a22.18,22.18,0,0,0-5.61-2.34V22.55H78.93v6.63a22.15,22.15,0,0,0-5.61,2.34l-4.7-4.7-8,8,4.7,4.7A22.11,22.11,0,0,0,63,45.1H56.38V56.38H63A22.12,22.12,0,0,0,65.35,62l-4.7,4.7,8,8,4.7-4.7a22.14,22.14,0,0,0,5.61,2.34v6.63H90.21V72.3A22.11,22.11,0,0,0,95.82,70l4.69,4.69,8-8L103.79,62a22.1,22.1,0,0,0,2.34-5.62ZM84.57,61.83A11.09,11.09,0,1,1,95.67,50.74,11.11,11.11,0,0,1,84.57,61.83Z"/></g></g></svg>