<svg xmlns="http://www.w3.org/2000/svg" viewBox="0 0 115.72 115.72"><defs><style>.cls-1{fill:#58595b;}.cls-2{fill:#ef4136;}</style></defs><title>target</title><g id="Layer_2" data-name="Layer 2"><g id="Layer_1-2" data-name="Layer 1"><path class="cls-1" d="M115.72,52.07h-12A46.33,46.33,0,0,0,63.64,12V0H52.07V12A46.33,46.33,0,0,0,12,52.07H0V63.64H12a46.33,46.33,0,0,0,40.1,40.1v12H63.64v-12a46.33,46.33,0,0,0,40.1-40.1h12Zm-52.07,40V81H52.07v11A34.75,34.75,0,0,1,23.67,63.64h11V52.07h-11A34.75,34.75,0,0,1,52.07,23.67v11H63.64v-11A34.75,34.75,0,0,1,92.05,52.07H81V63.64h11A34.75,34.75,0,0,1,63.64,92.05Z"/><path class="cls-2" d="M57.86,40.5A17.36,17.36,0,1,0,75.22,57.86,17.38,17.38,0,0,0,57.86,40.5Zm0,23.14a5.79,5.79,0,1,1,5.79-5.79A5.79,5.79,0,0,1,57.86,63.64Z"/></g></g></svg>