<svg xmlns="http://www.w3.org/2000/svg" viewBox="0 0 115.72 115.72"><defs><style>.cls-1{fill:#58595b;}.cls-2{fill:#ef4136;}</style></defs><title>website 1</title><g id="Layer_2" data-name="Layer 2"><g id="Layer_1-2" data-name="Layer 1"><path class="cls-1" d="M0,0V115.72H115.72V0ZM69.43,11.57H81V23.14H69.43Zm-57.86,0H57.86V23.14H11.57Zm92.57,92.57H11.57V34.71h92.57Zm0-81H92.57V11.57h11.57Z"/><polygon class="cls-2" points="26.31 92.57 34.72 87.61 43.12 92.57 40.58 83.75 46.44 76.6 38.34 76.6 34.72 69.43 31.09 76.6 22.99 76.6 28.85 83.75 26.31 92.57"/><polygon class="cls-2" points="75.14 83.75 72.6 92.57 81 87.61 89.4 92.57 86.86 83.75 92.73 76.6 84.62 76.6 81 69.43 77.38 76.6 69.28 76.6 75.14 83.75"/><polygon class="cls-2" points="49.46 69.43 57.86 64.46 66.26 69.43 63.72 60.6 69.58 53.46 61.48 53.46 57.86 46.29 54.24 53.46 46.13 53.46 52 60.6 49.46 69.43"/></g></g></svg>